<?xml version="1.0"?>
<svg xmlns="http://www.w3.org/2000/svg" xmlns:xlink="http://www.w3.org/1999/xlink" xmlns:svgjs="http://svgjs.com/svgjs" version="1.1" width="512" height="512" x="0" y="0" viewBox="0 0 64 64" style="enable-background:new 0 0 512 512" xml:space="preserve" class=""><g><path xmlns="http://www.w3.org/2000/svg" d="m51 26c0-13.785-11.215-25-25-25s-25 11.215-25 25 11.215 25 25 25 25-11.215 25-25zm-25 23c-2.763 0-5.645-3.745-7.382-10h14.764c-1.737 6.255-4.619 10-7.382 10zm0-12h-7.876c-.285-1.295-.523-2.674-.706-4.137 2.018 2.518 5.112 4.137 8.582 4.137s6.564-1.619 8.582-4.137c-.182 1.462-.42 2.842-.706 4.137zm-22.975-10h11.985c.06 3.596.436 6.976 1.074 10h-10.278c-1.637-2.994-2.625-6.391-2.781-10zm22.975-24c2.763 0 5.645 3.745 7.382 10h-14.764c1.737-6.255 4.619-10 7.382-10zm0 12h7.876c.285 1.295.523 2.674.706 4.137-2.018-2.518-5.112-4.137-8.582-4.137s-6.564 1.619-8.582 4.137c.182-1.462.42-2.842.706-4.137zm22.975 10h-11.986c-.06-3.596-.436-6.976-1.074-10h10.278c1.638 2.994 2.626 6.391 2.782 10zm-13.975 1c0 4.963-4.037 9-9 9s-9-4.037-9-9 4.037-9 9-9 9 4.037 9 9zm-19.989-1h-11.986c.155-3.609 1.143-7.006 2.781-10h10.278c-.637 3.024-1.014 6.404-1.073 10zm21.978 2h11.985c-.155 3.609-1.143 7.006-2.781 10h-10.277c.637-3.024 1.014-6.404 1.073-10zm7.972-14h-9.517c-1.074-4.085-2.65-7.374-4.546-9.47 5.806 1.265 10.8 4.726 14.063 9.47zm-23.858-9.47c-1.897 2.096-3.472 5.385-4.546 9.47h-9.518c3.263-4.744 8.257-8.205 14.064-9.47zm-14.064 35.47h9.517c1.074 4.085 2.65 7.374 4.546 9.47-5.806-1.265-10.8-4.726-14.063-9.47zm23.858 9.47c1.897-2.096 3.472-5.385 4.546-9.47h9.517c-3.262 4.744-8.256 8.205-14.063 9.47z" fill="#ffffff" data-original="#000000" style=""/><path xmlns="http://www.w3.org/2000/svg" d="m27 23c.552 0 1 .448 1 1h2c0-1.654-1.346-3-3-3v-2h-2v2h-3v3c0 1.654 1.346 3 3 3h2c.552 0 1 .448 1 1v1h-3c-.552 0-1-.448-1-1h-2c0 1.654 1.346 3 3 3v2h2v-2h3v-3c0-1.654-1.346-3-3-3h-2c-.552 0-1-.448-1-1v-1z" fill="#ffffff" data-original="#000000" style=""/><path xmlns="http://www.w3.org/2000/svg" d="m62.121 32.707-.707-.707c-1.289-1.289-3.539-1.289-4.828 0l-5.586 5.586c-.645.645-1 1.502-1 2.414s.355 1.77 1 2.414l1.293 1.293c.959.959 1.135 2.466.42 3.583-.689 1.076-1.504 2.087-2.42 3.003s-1.927 1.73-3.003 2.42c-1.117.715-2.624.539-3.583-.42l-1.293-1.293c-1.289-1.289-3.539-1.289-4.828 0l-5.586 5.586c-.645.645-1 1.502-1 2.414s.355 1.77 1 2.414l.707.707c.566.567 1.32.879 2.121.879h7.172c.262 0 6.497-.083 13.707-7.293s7.293-13.445 7.293-13.707v-7.172c0-.801-.312-1.555-.879-2.121zm-10.121 7.293c0-.378.147-.732.414-1l5.586-5.586c.535-.533 1.465-.533 2 0l.586.586-7.586 7.586-.586-.586c-.267-.268-.414-.622-.414-1zm-18.586 18 5.586-5.586c.268-.267.622-.414 1-.414s.732.147 1 .414l.586.586-7.586 7.586-.586-.586c-.267-.268-.414-.622-.414-1s.147-.732.414-1zm20.879-3.707c-6.576 6.576-12.241 6.706-12.293 6.707h-5.586l6.667-6.667c1.584 1.036 3.67 1.1 5.287.063 1.198-.767 2.321-1.672 3.339-2.689s1.923-2.141 2.689-3.339c1.037-1.618.972-3.703-.063-5.287l6.667-6.667v5.586c0 .056-.077 5.662-6.707 12.293z" fill="#ffffff" data-original="#000000" style=""/></g></svg>
