<?xml version="1.0"?>
<svg xmlns="http://www.w3.org/2000/svg" xmlns:xlink="http://www.w3.org/1999/xlink" xmlns:svgjs="http://svgjs.com/svgjs" version="1.1" width="512" height="512" x="0" y="0" viewBox="0 0 512 512" style="enable-background:new 0 0 512 512" xml:space="preserve" class=""><g><g xmlns="http://www.w3.org/2000/svg"><path d="m0 391h181v15c0 24.813-20.187 45-45 45v30h240v-30c-24.813 0-45-20.187-45-45v-15h181v-360h-512zm316.041 60h-120.082c9.438-12.544 15.041-28.129 15.041-45v-15h90v15c0 16.871 5.603 32.456 15.041 45zm-286.041-390h452v300h-452z" fill="#ffffff" data-original="#000000" style="" class=""/><path d="m211 151h-30v30h-30v120h30v30h30v-30h30v-120h-30zm0 120h-30v-60h30z" fill="#ffffff" data-original="#000000" style="" class=""/><path d="m331 91h-30v30h-30v180h30v30h30v-30h30v-180h-30zm0 180h-30v-120h30z" fill="#ffffff" data-original="#000000" style="" class=""/></g></g></svg>
